<svg xmlns="http://www.w3.org/2000/svg" version="1.1" xmlns:xlink="http://www.w3.org/1999/xlink" xmlns:svgjs="http://svgjs.dev/svgjs" viewBox="0 0 800 800" opacity="0.85" width="800" height="800"><g stroke-width="0.5" stroke="hsl(261, 60%, 38%)" fill="none"><rect width="25" height="1" x="-12.5" y="-0.5" stroke="none" fill="hsl(316, 73%, 52%)" rx="0.5" transform="rotate(45, 0, 0)"></rect><rect width="1" height="25" x="-0.5" y="-12.5" stroke="none" fill="hsl(316, 73%, 52%)" rx="0.5" transform="rotate(45, 0, 0)"></rect><rect width="25" height="1" x="37.5" y="-0.5" stroke="none" fill="hsl(261, 60%, 38%)" rx="0.5" transform="rotate(45, 50, 0)"></rect><rect width="1" height="25" x="49.5" y="-12.5" stroke="none" fill="hsl(261, 60%, 38%)" rx="0.5" transform="rotate(45, 50, 0)"></rect><rect width="25" height="1" x="87.5" y="-0.5" stroke="none" fill="hsl(316, 73%, 52%)" rx="0.5" transform="rotate(45, 100, 0)"></rect><rect width="1" height="25" x="99.5" y="-12.5" stroke="none" fill="hsl(316, 73%, 52%)" rx="0.5" transform="rotate(45, 100, 0)"></rect><rect width="25" height="1" x="137.5" y="-0.5" stroke="none" fill="hsl(261, 60%, 38%)" rx="0.5" transform="rotate(45, 150, 0)"></rect><rect width="1" height="25" x="149.5" y="-12.5" stroke="none" fill="hsl(261, 60%, 38%)" rx="0.5" transform="rotate(45, 150, 0)"></rect><rect width="25" height="1" x="187.5" y="-0.5" stroke="none" fill="hsl(316, 73%, 52%)" rx="0.5" transform="rotate(45, 200, 0)"></rect><rect width="1" height="25" x="199.5" y="-12.5" stroke="none" fill="hsl(316, 73%, 52%)" rx="0.5" transform="rotate(45, 200, 0)"></rect><rect width="25" height="1" x="237.5" y="-0.5" stroke="none" fill="hsl(261, 60%, 38%)" rx="0.5" transform="rotate(45, 250, 0)"></rect><rect width="1" height="25" x="249.5" y="-12.5" stroke="none" fill="hsl(261, 60%, 38%)" rx="0.5" transform="rotate(45, 250, 0)"></rect><rect width="25" height="1" x="287.5" y="-0.5" stroke="none" fill="hsl(316, 73%, 52%)" rx="0.5" transform="rotate(45, 300, 0)"></rect><rect width="1" height="25" x="299.5" y="-12.5" stroke="none" fill="hsl(316, 73%, 52%)" rx="0.5" transform="rotate(45, 300, 0)"></rect><rect width="25" height="1" x="337.5" y="-0.5" stroke="none" fill="hsl(261, 60%, 38%)" rx="0.5" transform="rotate(45, 350, 0)"></rect><rect width="1" height="25" x="349.5" y="-12.5" stroke="none" fill="hsl(261, 60%, 38%)" rx="0.5" transform="rotate(45, 350, 0)"></rect><rect width="25" height="1" x="387.5" y="-0.5" stroke="none" fill="hsl(316, 73%, 52%)" rx="0.5" transform="rotate(45, 400, 0)"></rect><rect width="1" height="25" x="399.5" y="-12.5" stroke="none" fill="hsl(316, 73%, 52%)" rx="0.5" transform="rotate(45, 400, 0)"></rect><rect width="25" height="1" x="437.5" y="-0.5" stroke="none" fill="hsl(261, 60%, 38%)" rx="0.5" transform="rotate(45, 450, 0)"></rect><rect width="1" height="25" x="449.5" y="-12.5" stroke="none" fill="hsl(261, 60%, 38%)" rx="0.5" transform="rotate(45, 450, 0)"></rect><rect width="25" height="1" x="487.5" y="-0.5" stroke="none" fill="hsl(316, 73%, 52%)" rx="0.5" transform="rotate(45, 500, 0)"></rect><rect width="1" height="25" x="499.5" y="-12.5" stroke="none" fill="hsl(316, 73%, 52%)" rx="0.5" transform="rotate(45, 500, 0)"></rect><rect width="25" height="1" x="537.5" y="-0.5" stroke="none" fill="hsl(261, 60%, 38%)" rx="0.5" transform="rotate(45, 550, 0)"></rect><rect width="1" height="25" x="549.5" y="-12.5" stroke="none" fill="hsl(261, 60%, 38%)" rx="0.5" transform="rotate(45, 550, 0)"></rect><rect width="25" height="1" x="587.5" y="-0.5" stroke="none" fill="hsl(316, 73%, 52%)" rx="0.5" transform="rotate(45, 600, 0)"></rect><rect width="1" height="25" x="599.5" y="-12.5" stroke="none" fill="hsl(316, 73%, 52%)" rx="0.5" transform="rotate(45, 600, 0)"></rect><rect width="25" height="1" x="637.5" y="-0.5" stroke="none" fill="hsl(261, 60%, 38%)" rx="0.5" transform="rotate(45, 650, 0)"></rect><rect width="1" height="25" x="649.5" y="-12.5" stroke="none" fill="hsl(261, 60%, 38%)" rx="0.5" transform="rotate(45, 650, 0)"></rect><rect width="25" height="1" x="687.5" y="-0.5" stroke="none" fill="hsl(316, 73%, 52%)" rx="0.5" transform="rotate(45, 700, 0)"></rect><rect width="1" height="25" x="699.5" y="-12.5" stroke="none" fill="hsl(316, 73%, 52%)" rx="0.5" transform="rotate(45, 700, 0)"></rect><rect width="25" height="1" x="737.5" y="-0.5" stroke="none" fill="hsl(261, 60%, 38%)" rx="0.5" transform="rotate(45, 750, 0)"></rect><rect width="1" height="25" x="749.5" y="-12.5" stroke="none" fill="hsl(261, 60%, 38%)" rx="0.5" transform="rotate(45, 750, 0)"></rect><rect width="25" height="1" x="787.5" y="-0.5" stroke="none" fill="hsl(316, 73%, 52%)" rx="0.5" transform="rotate(45, 800, 0)"></rect><rect width="1" height="25" x="799.5" y="-12.5" stroke="none" fill="hsl(316, 73%, 52%)" rx="0.5" transform="rotate(45, 800, 0)"></rect><rect width="25" height="1" x="-12.5" y="113.78571428571429" stroke="none" fill="hsl(261, 60%, 38%)" rx="0.5" transform="rotate(45, 0, 114.28571428571429)"></rect><rect width="1" height="25" x="-0.5" y="101.78571428571429" stroke="none" fill="hsl(261, 60%, 38%)" rx="0.5" transform="rotate(45, 0, 114.28571428571429)"></rect><rect width="25" height="1" x="37.5" y="113.78571428571429" stroke="none" fill="hsl(316, 73%, 52%)" rx="0.5" transform="rotate(45, 50, 114.28571428571429)"></rect><rect width="1" height="25" x="49.5" y="101.78571428571429" stroke="none" fill="hsl(316, 73%, 52%)" rx="0.5" transform="rotate(45, 50, 114.28571428571429)"></rect><rect width="25" height="1" x="87.5" y="113.78571428571429" stroke="none" fill="hsl(261, 60%, 38%)" rx="0.5" transform="rotate(45, 100, 114.28571428571429)"></rect><rect width="1" height="25" x="99.5" y="101.78571428571429" stroke="none" fill="hsl(261, 60%, 38%)" rx="0.5" transform="rotate(45, 100, 114.28571428571429)"></rect><rect width="25" height="1" x="137.5" y="113.78571428571429" stroke="none" fill="hsl(316, 73%, 52%)" rx="0.5" transform="rotate(45, 150, 114.28571428571429)"></rect><rect width="1" height="25" x="149.5" y="101.78571428571429" stroke="none" fill="hsl(316, 73%, 52%)" rx="0.5" transform="rotate(45, 150, 114.28571428571429)"></rect><rect width="25" height="1" x="187.5" y="113.78571428571429" stroke="none" fill="hsl(261, 60%, 38%)" rx="0.5" transform="rotate(45, 200, 114.28571428571429)"></rect><rect width="1" height="25" x="199.5" y="101.78571428571429" stroke="none" fill="hsl(261, 60%, 38%)" rx="0.5" transform="rotate(45, 200, 114.28571428571429)"></rect><rect width="25" height="1" x="237.5" y="113.78571428571429" stroke="none" fill="hsl(316, 73%, 52%)" rx="0.5" transform="rotate(45, 250, 114.28571428571429)"></rect><rect width="1" height="25" x="249.5" y="101.78571428571429" stroke="none" fill="hsl(316, 73%, 52%)" rx="0.5" transform="rotate(45, 250, 114.28571428571429)"></rect><rect width="25" height="1" x="287.5" y="113.78571428571429" stroke="none" fill="hsl(261, 60%, 38%)" rx="0.5" transform="rotate(45, 300, 114.28571428571429)"></rect><rect width="1" height="25" x="299.5" y="101.78571428571429" stroke="none" fill="hsl(261, 60%, 38%)" rx="0.5" transform="rotate(45, 300, 114.28571428571429)"></rect><rect width="25" height="1" x="337.5" y="113.78571428571429" stroke="none" fill="hsl(316, 73%, 52%)" rx="0.5" transform="rotate(45, 350, 114.28571428571429)"></rect><rect width="1" height="25" x="349.5" y="101.78571428571429" stroke="none" fill="hsl(316, 73%, 52%)" rx="0.5" transform="rotate(45, 350, 114.28571428571429)"></rect><rect width="25" height="1" x="387.5" y="113.78571428571429" stroke="none" fill="hsl(261, 60%, 38%)" rx="0.5" transform="rotate(45, 400, 114.28571428571429)"></rect><rect width="1" height="25" x="399.5" y="101.78571428571429" stroke="none" fill="hsl(261, 60%, 38%)" rx="0.5" transform="rotate(45, 400, 114.28571428571429)"></rect><rect width="25" height="1" x="437.5" y="113.78571428571429" stroke="none" fill="hsl(316, 73%, 52%)" rx="0.5" transform="rotate(45, 450, 114.28571428571429)"></rect><rect width="1" height="25" x="449.5" y="101.78571428571429" stroke="none" fill="hsl(316, 73%, 52%)" rx="0.5" transform="rotate(45, 450, 114.28571428571429)"></rect><rect width="25" height="1" x="487.5" y="113.78571428571429" stroke="none" fill="hsl(261, 60%, 38%)" rx="0.5" transform="rotate(45, 500, 114.28571428571429)"></rect><rect width="1" height="25" x="499.5" y="101.78571428571429" stroke="none" fill="hsl(261, 60%, 38%)" rx="0.5" transform="rotate(45, 500, 114.28571428571429)"></rect><rect width="25" height="1" x="537.5" y="113.78571428571429" stroke="none" fill="hsl(316, 73%, 52%)" rx="0.5" transform="rotate(45, 550, 114.28571428571429)"></rect><rect width="1" height="25" x="549.5" y="101.78571428571429" stroke="none" fill="hsl(316, 73%, 52%)" rx="0.5" transform="rotate(45, 550, 114.28571428571429)"></rect><rect width="25" height="1" x="587.5" y="113.78571428571429" stroke="none" fill="hsl(261, 60%, 38%)" rx="0.5" transform="rotate(45, 600, 114.28571428571429)"></rect><rect width="1" height="25" x="599.5" y="101.78571428571429" stroke="none" fill="hsl(261, 60%, 38%)" rx="0.5" transform="rotate(45, 600, 114.28571428571429)"></rect><rect width="25" height="1" x="637.5" y="113.78571428571429" stroke="none" fill="hsl(316, 73%, 52%)" rx="0.5" transform="rotate(45, 650, 114.28571428571429)"></rect><rect width="1" height="25" x="649.5" y="101.78571428571429" stroke="none" fill="hsl(316, 73%, 52%)" rx="0.5" transform="rotate(45, 650, 114.28571428571429)"></rect><rect width="25" height="1" x="687.5" y="113.78571428571429" stroke="none" fill="hsl(261, 60%, 38%)" rx="0.5" transform="rotate(45, 700, 114.28571428571429)"></rect><rect width="1" height="25" x="699.5" y="101.78571428571429" stroke="none" fill="hsl(261, 60%, 38%)" rx="0.5" transform="rotate(45, 700, 114.28571428571429)"></rect><rect width="25" height="1" x="737.5" y="113.78571428571429" stroke="none" fill="hsl(316, 73%, 52%)" rx="0.5" transform="rotate(45, 750, 114.28571428571429)"></rect><rect width="1" height="25" x="749.5" y="101.78571428571429" stroke="none" fill="hsl(316, 73%, 52%)" rx="0.5" transform="rotate(45, 750, 114.28571428571429)"></rect><rect width="25" height="1" x="787.5" y="113.78571428571429" stroke="none" fill="hsl(261, 60%, 38%)" rx="0.5" transform="rotate(45, 800, 114.28571428571429)"></rect><rect width="1" height="25" x="799.5" y="101.78571428571429" stroke="none" fill="hsl(261, 60%, 38%)" rx="0.5" transform="rotate(45, 800, 114.28571428571429)"></rect><rect width="25" height="1" x="-12.5" y="228.07142857142858" stroke="none" fill="hsl(316, 73%, 52%)" rx="0.5" transform="rotate(45, 0, 228.57142857142858)"></rect><rect width="1" height="25" x="-0.5" y="216.07142857142858" stroke="none" fill="hsl(316, 73%, 52%)" rx="0.5" transform="rotate(45, 0, 228.57142857142858)"></rect><rect width="25" height="1" x="37.5" y="228.07142857142858" stroke="none" fill="hsl(261, 60%, 38%)" rx="0.5" transform="rotate(45, 50, 228.57142857142858)"></rect><rect width="1" height="25" x="49.5" y="216.07142857142858" stroke="none" fill="hsl(261, 60%, 38%)" rx="0.5" transform="rotate(45, 50, 228.57142857142858)"></rect><rect width="25" height="1" x="87.5" y="228.07142857142858" stroke="none" fill="hsl(316, 73%, 52%)" rx="0.5" transform="rotate(45, 100, 228.57142857142858)"></rect><rect width="1" height="25" x="99.5" y="216.07142857142858" stroke="none" fill="hsl(316, 73%, 52%)" rx="0.5" transform="rotate(45, 100, 228.57142857142858)"></rect><rect width="25" height="1" x="137.5" y="228.07142857142858" stroke="none" fill="hsl(261, 60%, 38%)" rx="0.5" transform="rotate(45, 150, 228.57142857142858)"></rect><rect width="1" height="25" x="149.5" y="216.07142857142858" stroke="none" fill="hsl(261, 60%, 38%)" rx="0.5" transform="rotate(45, 150, 228.57142857142858)"></rect><rect width="25" height="1" x="187.5" y="228.07142857142858" stroke="none" fill="hsl(316, 73%, 52%)" rx="0.5" transform="rotate(45, 200, 228.57142857142858)"></rect><rect width="1" height="25" x="199.5" y="216.07142857142858" stroke="none" fill="hsl(316, 73%, 52%)" rx="0.5" transform="rotate(45, 200, 228.57142857142858)"></rect><rect width="25" height="1" x="237.5" y="228.07142857142858" stroke="none" fill="hsl(261, 60%, 38%)" rx="0.5" transform="rotate(45, 250, 228.57142857142858)"></rect><rect width="1" height="25" x="249.5" y="216.07142857142858" stroke="none" fill="hsl(261, 60%, 38%)" rx="0.5" transform="rotate(45, 250, 228.57142857142858)"></rect><rect width="25" height="1" x="287.5" y="228.07142857142858" stroke="none" fill="hsl(316, 73%, 52%)" rx="0.5" transform="rotate(45, 300, 228.57142857142858)"></rect><rect width="1" height="25" x="299.5" y="216.07142857142858" stroke="none" fill="hsl(316, 73%, 52%)" rx="0.5" transform="rotate(45, 300, 228.57142857142858)"></rect><rect width="25" height="1" x="337.5" y="228.07142857142858" stroke="none" fill="hsl(261, 60%, 38%)" rx="0.5" transform="rotate(45, 350, 228.57142857142858)"></rect><rect width="1" height="25" x="349.5" y="216.07142857142858" stroke="none" fill="hsl(261, 60%, 38%)" rx="0.5" transform="rotate(45, 350, 228.57142857142858)"></rect><rect width="25" height="1" x="387.5" y="228.07142857142858" stroke="none" fill="hsl(316, 73%, 52%)" rx="0.5" transform="rotate(45, 400, 228.57142857142858)"></rect><rect width="1" height="25" x="399.5" y="216.07142857142858" stroke="none" fill="hsl(316, 73%, 52%)" rx="0.5" transform="rotate(45, 400, 228.57142857142858)"></rect><rect width="25" height="1" x="437.5" y="228.07142857142858" stroke="none" fill="hsl(261, 60%, 38%)" rx="0.5" transform="rotate(45, 450, 228.57142857142858)"></rect><rect width="1" height="25" x="449.5" y="216.07142857142858" stroke="none" fill="hsl(261, 60%, 38%)" rx="0.5" transform="rotate(45, 450, 228.57142857142858)"></rect><rect width="25" height="1" x="487.5" y="228.07142857142858" stroke="none" fill="hsl(316, 73%, 52%)" rx="0.5" transform="rotate(45, 500, 228.57142857142858)"></rect><rect width="1" height="25" x="499.5" y="216.07142857142858" stroke="none" fill="hsl(316, 73%, 52%)" rx="0.5" transform="rotate(45, 500, 228.57142857142858)"></rect><rect width="25" height="1" x="537.5" y="228.07142857142858" stroke="none" fill="hsl(261, 60%, 38%)" rx="0.5" transform="rotate(45, 550, 228.57142857142858)"></rect><rect width="1" height="25" x="549.5" y="216.07142857142858" stroke="none" fill="hsl(261, 60%, 38%)" rx="0.5" transform="rotate(45, 550, 228.57142857142858)"></rect><rect width="25" height="1" x="587.5" y="228.07142857142858" stroke="none" fill="hsl(316, 73%, 52%)" rx="0.5" transform="rotate(45, 600, 228.57142857142858)"></rect><rect width="1" height="25" x="599.5" y="216.07142857142858" stroke="none" fill="hsl(316, 73%, 52%)" rx="0.5" transform="rotate(45, 600, 228.57142857142858)"></rect><rect width="25" height="1" x="637.5" y="228.07142857142858" stroke="none" fill="hsl(261, 60%, 38%)" rx="0.5" transform="rotate(45, 650, 228.57142857142858)"></rect><rect width="1" height="25" x="649.5" y="216.07142857142858" stroke="none" fill="hsl(261, 60%, 38%)" rx="0.5" transform="rotate(45, 650, 228.57142857142858)"></rect><rect width="25" height="1" x="687.5" y="228.07142857142858" stroke="none" fill="hsl(316, 73%, 52%)" rx="0.5" transform="rotate(45, 700, 228.57142857142858)"></rect><rect width="1" height="25" x="699.5" y="216.07142857142858" stroke="none" fill="hsl(316, 73%, 52%)" rx="0.5" transform="rotate(45, 700, 228.57142857142858)"></rect><rect width="25" height="1" x="737.5" y="228.07142857142858" stroke="none" fill="hsl(261, 60%, 38%)" rx="0.5" transform="rotate(45, 750, 228.57142857142858)"></rect><rect width="1" height="25" x="749.5" y="216.07142857142858" stroke="none" fill="hsl(261, 60%, 38%)" rx="0.5" transform="rotate(45, 750, 228.57142857142858)"></rect><rect width="25" height="1" x="787.5" y="228.07142857142858" stroke="none" fill="hsl(316, 73%, 52%)" rx="0.5" transform="rotate(45, 800, 228.57142857142858)"></rect><rect width="1" height="25" x="799.5" y="216.07142857142858" stroke="none" fill="hsl(316, 73%, 52%)" rx="0.5" transform="rotate(45, 800, 228.57142857142858)"></rect><rect width="25" height="1" x="-12.5" y="342.3571428571429" stroke="none" fill="hsl(261, 60%, 38%)" rx="0.5" transform="rotate(45, 0, 342.8571428571429)"></rect><rect width="1" height="25" x="-0.5" y="330.3571428571429" stroke="none" fill="hsl(261, 60%, 38%)" rx="0.5" transform="rotate(45, 0, 342.8571428571429)"></rect><rect width="25" height="1" x="37.5" y="342.3571428571429" stroke="none" fill="hsl(316, 73%, 52%)" rx="0.5" transform="rotate(45, 50, 342.8571428571429)"></rect><rect width="1" height="25" x="49.5" y="330.3571428571429" stroke="none" fill="hsl(316, 73%, 52%)" rx="0.5" transform="rotate(45, 50, 342.8571428571429)"></rect><rect width="25" height="1" x="87.5" y="342.3571428571429" stroke="none" fill="hsl(261, 60%, 38%)" rx="0.5" transform="rotate(45, 100, 342.8571428571429)"></rect><rect width="1" height="25" x="99.5" y="330.3571428571429" stroke="none" fill="hsl(261, 60%, 38%)" rx="0.5" transform="rotate(45, 100, 342.8571428571429)"></rect><rect width="25" height="1" x="137.5" y="342.3571428571429" stroke="none" fill="hsl(316, 73%, 52%)" rx="0.5" transform="rotate(45, 150, 342.8571428571429)"></rect><rect width="1" height="25" x="149.5" y="330.3571428571429" stroke="none" fill="hsl(316, 73%, 52%)" rx="0.5" transform="rotate(45, 150, 342.8571428571429)"></rect><rect width="25" height="1" x="187.5" y="342.3571428571429" stroke="none" fill="hsl(261, 60%, 38%)" rx="0.5" transform="rotate(45, 200, 342.8571428571429)"></rect><rect width="1" height="25" x="199.5" y="330.3571428571429" stroke="none" fill="hsl(261, 60%, 38%)" rx="0.5" transform="rotate(45, 200, 342.8571428571429)"></rect><rect width="25" height="1" x="237.5" y="342.3571428571429" stroke="none" fill="hsl(316, 73%, 52%)" rx="0.5" transform="rotate(45, 250, 342.8571428571429)"></rect><rect width="1" height="25" x="249.5" y="330.3571428571429" stroke="none" fill="hsl(316, 73%, 52%)" rx="0.5" transform="rotate(45, 250, 342.8571428571429)"></rect><rect width="25" height="1" x="287.5" y="342.3571428571429" stroke="none" fill="hsl(261, 60%, 38%)" rx="0.5" transform="rotate(45, 300, 342.8571428571429)"></rect><rect width="1" height="25" x="299.5" y="330.3571428571429" stroke="none" fill="hsl(261, 60%, 38%)" rx="0.5" transform="rotate(45, 300, 342.8571428571429)"></rect><rect width="25" height="1" x="337.5" y="342.3571428571429" stroke="none" fill="hsl(316, 73%, 52%)" rx="0.5" transform="rotate(45, 350, 342.8571428571429)"></rect><rect width="1" height="25" x="349.5" y="330.3571428571429" stroke="none" fill="hsl(316, 73%, 52%)" rx="0.5" transform="rotate(45, 350, 342.8571428571429)"></rect><rect width="25" height="1" x="387.5" y="342.3571428571429" stroke="none" fill="hsl(261, 60%, 38%)" rx="0.5" transform="rotate(45, 400, 342.8571428571429)"></rect><rect width="1" height="25" x="399.5" y="330.3571428571429" stroke="none" fill="hsl(261, 60%, 38%)" rx="0.5" transform="rotate(45, 400, 342.8571428571429)"></rect><rect width="25" height="1" x="437.5" y="342.3571428571429" stroke="none" fill="hsl(316, 73%, 52%)" rx="0.5" transform="rotate(45, 450, 342.8571428571429)"></rect><rect width="1" height="25" x="449.5" y="330.3571428571429" stroke="none" fill="hsl(316, 73%, 52%)" rx="0.5" transform="rotate(45, 450, 342.8571428571429)"></rect><rect width="25" height="1" x="487.5" y="342.3571428571429" stroke="none" fill="hsl(261, 60%, 38%)" rx="0.5" transform="rotate(45, 500, 342.8571428571429)"></rect><rect width="1" height="25" x="499.5" y="330.3571428571429" stroke="none" fill="hsl(261, 60%, 38%)" rx="0.5" transform="rotate(45, 500, 342.8571428571429)"></rect><rect width="25" height="1" x="537.5" y="342.3571428571429" stroke="none" fill="hsl(316, 73%, 52%)" rx="0.5" transform="rotate(45, 550, 342.8571428571429)"></rect><rect width="1" height="25" x="549.5" y="330.3571428571429" stroke="none" fill="hsl(316, 73%, 52%)" rx="0.5" transform="rotate(45, 550, 342.8571428571429)"></rect><rect width="25" height="1" x="587.5" y="342.3571428571429" stroke="none" fill="hsl(261, 60%, 38%)" rx="0.5" transform="rotate(45, 600, 342.8571428571429)"></rect><rect width="1" height="25" x="599.5" y="330.3571428571429" stroke="none" fill="hsl(261, 60%, 38%)" rx="0.5" transform="rotate(45, 600, 342.8571428571429)"></rect><rect width="25" height="1" x="637.5" y="342.3571428571429" stroke="none" fill="hsl(316, 73%, 52%)" rx="0.5" transform="rotate(45, 650, 342.8571428571429)"></rect><rect width="1" height="25" x="649.5" y="330.3571428571429" stroke="none" fill="hsl(316, 73%, 52%)" rx="0.5" transform="rotate(45, 650, 342.8571428571429)"></rect><rect width="25" height="1" x="687.5" y="342.3571428571429" stroke="none" fill="hsl(261, 60%, 38%)" rx="0.5" transform="rotate(45, 700, 342.8571428571429)"></rect><rect width="1" height="25" x="699.5" y="330.3571428571429" stroke="none" fill="hsl(261, 60%, 38%)" rx="0.5" transform="rotate(45, 700, 342.8571428571429)"></rect><rect width="25" height="1" x="737.5" y="342.3571428571429" stroke="none" fill="hsl(316, 73%, 52%)" rx="0.5" transform="rotate(45, 750, 342.8571428571429)"></rect><rect width="1" height="25" x="749.5" y="330.3571428571429" stroke="none" fill="hsl(316, 73%, 52%)" rx="0.5" transform="rotate(45, 750, 342.8571428571429)"></rect><rect width="25" height="1" x="787.5" y="342.3571428571429" stroke="none" fill="hsl(261, 60%, 38%)" rx="0.5" transform="rotate(45, 800, 342.8571428571429)"></rect><rect width="1" height="25" x="799.5" y="330.3571428571429" stroke="none" fill="hsl(261, 60%, 38%)" rx="0.5" transform="rotate(45, 800, 342.8571428571429)"></rect><rect width="25" height="1" x="-12.5" y="456.64285714285717" stroke="none" fill="hsl(316, 73%, 52%)" rx="0.5" transform="rotate(45, 0, 457.14285714285717)"></rect><rect width="1" height="25" x="-0.5" y="444.64285714285717" stroke="none" fill="hsl(316, 73%, 52%)" rx="0.5" transform="rotate(45, 0, 457.14285714285717)"></rect><rect width="25" height="1" x="37.5" y="456.64285714285717" stroke="none" fill="hsl(261, 60%, 38%)" rx="0.5" transform="rotate(45, 50, 457.14285714285717)"></rect><rect width="1" height="25" x="49.5" y="444.64285714285717" stroke="none" fill="hsl(261, 60%, 38%)" rx="0.5" transform="rotate(45, 50, 457.14285714285717)"></rect><rect width="25" height="1" x="87.5" y="456.64285714285717" stroke="none" fill="hsl(316, 73%, 52%)" rx="0.5" transform="rotate(45, 100, 457.14285714285717)"></rect><rect width="1" height="25" x="99.5" y="444.64285714285717" stroke="none" fill="hsl(316, 73%, 52%)" rx="0.5" transform="rotate(45, 100, 457.14285714285717)"></rect><rect width="25" height="1" x="137.5" y="456.64285714285717" stroke="none" fill="hsl(261, 60%, 38%)" rx="0.5" transform="rotate(45, 150, 457.14285714285717)"></rect><rect width="1" height="25" x="149.5" y="444.64285714285717" stroke="none" fill="hsl(261, 60%, 38%)" rx="0.5" transform="rotate(45, 150, 457.14285714285717)"></rect><rect width="25" height="1" x="187.5" y="456.64285714285717" stroke="none" fill="hsl(316, 73%, 52%)" rx="0.5" transform="rotate(45, 200, 457.14285714285717)"></rect><rect width="1" height="25" x="199.5" y="444.64285714285717" stroke="none" fill="hsl(316, 73%, 52%)" rx="0.5" transform="rotate(45, 200, 457.14285714285717)"></rect><rect width="25" height="1" x="237.5" y="456.64285714285717" stroke="none" fill="hsl(261, 60%, 38%)" rx="0.5" transform="rotate(45, 250, 457.14285714285717)"></rect><rect width="1" height="25" x="249.5" y="444.64285714285717" stroke="none" fill="hsl(261, 60%, 38%)" rx="0.5" transform="rotate(45, 250, 457.14285714285717)"></rect><rect width="25" height="1" x="287.5" y="456.64285714285717" stroke="none" fill="hsl(316, 73%, 52%)" rx="0.5" transform="rotate(45, 300, 457.14285714285717)"></rect><rect width="1" height="25" x="299.5" y="444.64285714285717" stroke="none" fill="hsl(316, 73%, 52%)" rx="0.5" transform="rotate(45, 300, 457.14285714285717)"></rect><rect width="25" height="1" x="337.5" y="456.64285714285717" stroke="none" fill="hsl(261, 60%, 38%)" rx="0.5" transform="rotate(45, 350, 457.14285714285717)"></rect><rect width="1" height="25" x="349.5" y="444.64285714285717" stroke="none" fill="hsl(261, 60%, 38%)" rx="0.5" transform="rotate(45, 350, 457.14285714285717)"></rect><rect width="25" height="1" x="387.5" y="456.64285714285717" stroke="none" fill="hsl(316, 73%, 52%)" rx="0.5" transform="rotate(45, 400, 457.14285714285717)"></rect><rect width="1" height="25" x="399.5" y="444.64285714285717" stroke="none" fill="hsl(316, 73%, 52%)" rx="0.5" transform="rotate(45, 400, 457.14285714285717)"></rect><rect width="25" height="1" x="437.5" y="456.64285714285717" stroke="none" fill="hsl(261, 60%, 38%)" rx="0.5" transform="rotate(45, 450, 457.14285714285717)"></rect><rect width="1" height="25" x="449.5" y="444.64285714285717" stroke="none" fill="hsl(261, 60%, 38%)" rx="0.5" transform="rotate(45, 450, 457.14285714285717)"></rect><rect width="25" height="1" x="487.5" y="456.64285714285717" stroke="none" fill="hsl(316, 73%, 52%)" rx="0.5" transform="rotate(45, 500, 457.14285714285717)"></rect><rect width="1" height="25" x="499.5" y="444.64285714285717" stroke="none" fill="hsl(316, 73%, 52%)" rx="0.5" transform="rotate(45, 500, 457.14285714285717)"></rect><rect width="25" height="1" x="537.5" y="456.64285714285717" stroke="none" fill="hsl(261, 60%, 38%)" rx="0.5" transform="rotate(45, 550, 457.14285714285717)"></rect><rect width="1" height="25" x="549.5" y="444.64285714285717" stroke="none" fill="hsl(261, 60%, 38%)" rx="0.5" transform="rotate(45, 550, 457.14285714285717)"></rect><rect width="25" height="1" x="587.5" y="456.64285714285717" stroke="none" fill="hsl(316, 73%, 52%)" rx="0.5" transform="rotate(45, 600, 457.14285714285717)"></rect><rect width="1" height="25" x="599.5" y="444.64285714285717" stroke="none" fill="hsl(316, 73%, 52%)" rx="0.5" transform="rotate(45, 600, 457.14285714285717)"></rect><rect width="25" height="1" x="637.5" y="456.64285714285717" stroke="none" fill="hsl(261, 60%, 38%)" rx="0.5" transform="rotate(45, 650, 457.14285714285717)"></rect><rect width="1" height="25" x="649.5" y="444.64285714285717" stroke="none" fill="hsl(261, 60%, 38%)" rx="0.5" transform="rotate(45, 650, 457.14285714285717)"></rect><rect width="25" height="1" x="687.5" y="456.64285714285717" stroke="none" fill="hsl(316, 73%, 52%)" rx="0.5" transform="rotate(45, 700, 457.14285714285717)"></rect><rect width="1" height="25" x="699.5" y="444.64285714285717" stroke="none" fill="hsl(316, 73%, 52%)" rx="0.5" transform="rotate(45, 700, 457.14285714285717)"></rect><rect width="25" height="1" x="737.5" y="456.64285714285717" stroke="none" fill="hsl(261, 60%, 38%)" rx="0.5" transform="rotate(45, 750, 457.14285714285717)"></rect><rect width="1" height="25" x="749.5" y="444.64285714285717" stroke="none" fill="hsl(261, 60%, 38%)" rx="0.5" transform="rotate(45, 750, 457.14285714285717)"></rect><rect width="25" height="1" x="787.5" y="456.64285714285717" stroke="none" fill="hsl(316, 73%, 52%)" rx="0.5" transform="rotate(45, 800, 457.14285714285717)"></rect><rect width="1" height="25" x="799.5" y="444.64285714285717" stroke="none" fill="hsl(316, 73%, 52%)" rx="0.5" transform="rotate(45, 800, 457.14285714285717)"></rect><rect width="25" height="1" x="-12.5" y="570.9285714285714" stroke="none" fill="hsl(261, 60%, 38%)" rx="0.5" transform="rotate(45, 0, 571.4285714285714)"></rect><rect width="1" height="25" x="-0.5" y="558.9285714285714" stroke="none" fill="hsl(261, 60%, 38%)" rx="0.5" transform="rotate(45, 0, 571.4285714285714)"></rect><rect width="25" height="1" x="37.5" y="570.9285714285714" stroke="none" fill="hsl(316, 73%, 52%)" rx="0.5" transform="rotate(45, 50, 571.4285714285714)"></rect><rect width="1" height="25" x="49.5" y="558.9285714285714" stroke="none" fill="hsl(316, 73%, 52%)" rx="0.5" transform="rotate(45, 50, 571.4285714285714)"></rect><rect width="25" height="1" x="87.5" y="570.9285714285714" stroke="none" fill="hsl(261, 60%, 38%)" rx="0.5" transform="rotate(45, 100, 571.4285714285714)"></rect><rect width="1" height="25" x="99.5" y="558.9285714285714" stroke="none" fill="hsl(261, 60%, 38%)" rx="0.5" transform="rotate(45, 100, 571.4285714285714)"></rect><rect width="25" height="1" x="137.5" y="570.9285714285714" stroke="none" fill="hsl(316, 73%, 52%)" rx="0.5" transform="rotate(45, 150, 571.4285714285714)"></rect><rect width="1" height="25" x="149.5" y="558.9285714285714" stroke="none" fill="hsl(316, 73%, 52%)" rx="0.5" transform="rotate(45, 150, 571.4285714285714)"></rect><rect width="25" height="1" x="187.5" y="570.9285714285714" stroke="none" fill="hsl(261, 60%, 38%)" rx="0.5" transform="rotate(45, 200, 571.4285714285714)"></rect><rect width="1" height="25" x="199.5" y="558.9285714285714" stroke="none" fill="hsl(261, 60%, 38%)" rx="0.5" transform="rotate(45, 200, 571.4285714285714)"></rect><rect width="25" height="1" x="237.5" y="570.9285714285714" stroke="none" fill="hsl(316, 73%, 52%)" rx="0.5" transform="rotate(45, 250, 571.4285714285714)"></rect><rect width="1" height="25" x="249.5" y="558.9285714285714" stroke="none" fill="hsl(316, 73%, 52%)" rx="0.5" transform="rotate(45, 250, 571.4285714285714)"></rect><rect width="25" height="1" x="287.5" y="570.9285714285714" stroke="none" fill="hsl(261, 60%, 38%)" rx="0.5" transform="rotate(45, 300, 571.4285714285714)"></rect><rect width="1" height="25" x="299.5" y="558.9285714285714" stroke="none" fill="hsl(261, 60%, 38%)" rx="0.5" transform="rotate(45, 300, 571.4285714285714)"></rect><rect width="25" height="1" x="337.5" y="570.9285714285714" stroke="none" fill="hsl(316, 73%, 52%)" rx="0.5" transform="rotate(45, 350, 571.4285714285714)"></rect><rect width="1" height="25" x="349.5" y="558.9285714285714" stroke="none" fill="hsl(316, 73%, 52%)" rx="0.5" transform="rotate(45, 350, 571.4285714285714)"></rect><rect width="25" height="1" x="387.5" y="570.9285714285714" stroke="none" fill="hsl(261, 60%, 38%)" rx="0.5" transform="rotate(45, 400, 571.4285714285714)"></rect><rect width="1" height="25" x="399.5" y="558.9285714285714" stroke="none" fill="hsl(261, 60%, 38%)" rx="0.5" transform="rotate(45, 400, 571.4285714285714)"></rect><rect width="25" height="1" x="437.5" y="570.9285714285714" stroke="none" fill="hsl(316, 73%, 52%)" rx="0.5" transform="rotate(45, 450, 571.4285714285714)"></rect><rect width="1" height="25" x="449.5" y="558.9285714285714" stroke="none" fill="hsl(316, 73%, 52%)" rx="0.5" transform="rotate(45, 450, 571.4285714285714)"></rect><rect width="25" height="1" x="487.5" y="570.9285714285714" stroke="none" fill="hsl(261, 60%, 38%)" rx="0.5" transform="rotate(45, 500, 571.4285714285714)"></rect><rect width="1" height="25" x="499.5" y="558.9285714285714" stroke="none" fill="hsl(261, 60%, 38%)" rx="0.5" transform="rotate(45, 500, 571.4285714285714)"></rect><rect width="25" height="1" x="537.5" y="570.9285714285714" stroke="none" fill="hsl(316, 73%, 52%)" rx="0.5" transform="rotate(45, 550, 571.4285714285714)"></rect><rect width="1" height="25" x="549.5" y="558.9285714285714" stroke="none" fill="hsl(316, 73%, 52%)" rx="0.5" transform="rotate(45, 550, 571.4285714285714)"></rect><rect width="25" height="1" x="587.5" y="570.9285714285714" stroke="none" fill="hsl(261, 60%, 38%)" rx="0.5" transform="rotate(45, 600, 571.4285714285714)"></rect><rect width="1" height="25" x="599.5" y="558.9285714285714" stroke="none" fill="hsl(261, 60%, 38%)" rx="0.5" transform="rotate(45, 600, 571.4285714285714)"></rect><rect width="25" height="1" x="637.5" y="570.9285714285714" stroke="none" fill="hsl(316, 73%, 52%)" rx="0.5" transform="rotate(45, 650, 571.4285714285714)"></rect><rect width="1" height="25" x="649.5" y="558.9285714285714" stroke="none" fill="hsl(316, 73%, 52%)" rx="0.5" transform="rotate(45, 650, 571.4285714285714)"></rect><rect width="25" height="1" x="687.5" y="570.9285714285714" stroke="none" fill="hsl(261, 60%, 38%)" rx="0.5" transform="rotate(45, 700, 571.4285714285714)"></rect><rect width="1" height="25" x="699.5" y="558.9285714285714" stroke="none" fill="hsl(261, 60%, 38%)" rx="0.5" transform="rotate(45, 700, 571.4285714285714)"></rect><rect width="25" height="1" x="737.5" y="570.9285714285714" stroke="none" fill="hsl(316, 73%, 52%)" rx="0.5" transform="rotate(45, 750, 571.4285714285714)"></rect><rect width="1" height="25" x="749.5" y="558.9285714285714" stroke="none" fill="hsl(316, 73%, 52%)" rx="0.5" transform="rotate(45, 750, 571.4285714285714)"></rect><rect width="25" height="1" x="787.5" y="570.9285714285714" stroke="none" fill="hsl(261, 60%, 38%)" rx="0.5" transform="rotate(45, 800, 571.4285714285714)"></rect><rect width="1" height="25" x="799.5" y="558.9285714285714" stroke="none" fill="hsl(261, 60%, 38%)" rx="0.5" transform="rotate(45, 800, 571.4285714285714)"></rect><rect width="25" height="1" x="-12.5" y="685.2142857142858" stroke="none" fill="hsl(316, 73%, 52%)" rx="0.5" transform="rotate(45, 0, 685.7142857142858)"></rect><rect width="1" height="25" x="-0.5" y="673.2142857142858" stroke="none" fill="hsl(316, 73%, 52%)" rx="0.5" transform="rotate(45, 0, 685.7142857142858)"></rect><rect width="25" height="1" x="37.5" y="685.2142857142858" stroke="none" fill="hsl(261, 60%, 38%)" rx="0.5" transform="rotate(45, 50, 685.7142857142858)"></rect><rect width="1" height="25" x="49.5" y="673.2142857142858" stroke="none" fill="hsl(261, 60%, 38%)" rx="0.5" transform="rotate(45, 50, 685.7142857142858)"></rect><rect width="25" height="1" x="87.5" y="685.2142857142858" stroke="none" fill="hsl(316, 73%, 52%)" rx="0.5" transform="rotate(45, 100, 685.7142857142858)"></rect><rect width="1" height="25" x="99.5" y="673.2142857142858" stroke="none" fill="hsl(316, 73%, 52%)" rx="0.5" transform="rotate(45, 100, 685.7142857142858)"></rect><rect width="25" height="1" x="137.5" y="685.2142857142858" stroke="none" fill="hsl(261, 60%, 38%)" rx="0.5" transform="rotate(45, 150, 685.7142857142858)"></rect><rect width="1" height="25" x="149.5" y="673.2142857142858" stroke="none" fill="hsl(261, 60%, 38%)" rx="0.5" transform="rotate(45, 150, 685.7142857142858)"></rect><rect width="25" height="1" x="187.5" y="685.2142857142858" stroke="none" fill="hsl(316, 73%, 52%)" rx="0.5" transform="rotate(45, 200, 685.7142857142858)"></rect><rect width="1" height="25" x="199.5" y="673.2142857142858" stroke="none" fill="hsl(316, 73%, 52%)" rx="0.5" transform="rotate(45, 200, 685.7142857142858)"></rect><rect width="25" height="1" x="237.5" y="685.2142857142858" stroke="none" fill="hsl(261, 60%, 38%)" rx="0.5" transform="rotate(45, 250, 685.7142857142858)"></rect><rect width="1" height="25" x="249.5" y="673.2142857142858" stroke="none" fill="hsl(261, 60%, 38%)" rx="0.5" transform="rotate(45, 250, 685.7142857142858)"></rect><rect width="25" height="1" x="287.5" y="685.2142857142858" stroke="none" fill="hsl(316, 73%, 52%)" rx="0.5" transform="rotate(45, 300, 685.7142857142858)"></rect><rect width="1" height="25" x="299.5" y="673.2142857142858" stroke="none" fill="hsl(316, 73%, 52%)" rx="0.5" transform="rotate(45, 300, 685.7142857142858)"></rect><rect width="25" height="1" x="337.5" y="685.2142857142858" stroke="none" fill="hsl(261, 60%, 38%)" rx="0.5" transform="rotate(45, 350, 685.7142857142858)"></rect><rect width="1" height="25" x="349.5" y="673.2142857142858" stroke="none" fill="hsl(261, 60%, 38%)" rx="0.5" transform="rotate(45, 350, 685.7142857142858)"></rect><rect width="25" height="1" x="387.5" y="685.2142857142858" stroke="none" fill="hsl(316, 73%, 52%)" rx="0.5" transform="rotate(45, 400, 685.7142857142858)"></rect><rect width="1" height="25" x="399.5" y="673.2142857142858" stroke="none" fill="hsl(316, 73%, 52%)" rx="0.5" transform="rotate(45, 400, 685.7142857142858)"></rect><rect width="25" height="1" x="437.5" y="685.2142857142858" stroke="none" fill="hsl(261, 60%, 38%)" rx="0.5" transform="rotate(45, 450, 685.7142857142858)"></rect><rect width="1" height="25" x="449.5" y="673.2142857142858" stroke="none" fill="hsl(261, 60%, 38%)" rx="0.5" transform="rotate(45, 450, 685.7142857142858)"></rect><rect width="25" height="1" x="487.5" y="685.2142857142858" stroke="none" fill="hsl(316, 73%, 52%)" rx="0.5" transform="rotate(45, 500, 685.7142857142858)"></rect><rect width="1" height="25" x="499.5" y="673.2142857142858" stroke="none" fill="hsl(316, 73%, 52%)" rx="0.5" transform="rotate(45, 500, 685.7142857142858)"></rect><rect width="25" height="1" x="537.5" y="685.2142857142858" stroke="none" fill="hsl(261, 60%, 38%)" rx="0.5" transform="rotate(45, 550, 685.7142857142858)"></rect><rect width="1" height="25" x="549.5" y="673.2142857142858" stroke="none" fill="hsl(261, 60%, 38%)" rx="0.5" transform="rotate(45, 550, 685.7142857142858)"></rect><rect width="25" height="1" x="587.5" y="685.2142857142858" stroke="none" fill="hsl(316, 73%, 52%)" rx="0.5" transform="rotate(45, 600, 685.7142857142858)"></rect><rect width="1" height="25" x="599.5" y="673.2142857142858" stroke="none" fill="hsl(316, 73%, 52%)" rx="0.5" transform="rotate(45, 600, 685.7142857142858)"></rect><rect width="25" height="1" x="637.5" y="685.2142857142858" stroke="none" fill="hsl(261, 60%, 38%)" rx="0.5" transform="rotate(45, 650, 685.7142857142858)"></rect><rect width="1" height="25" x="649.5" y="673.2142857142858" stroke="none" fill="hsl(261, 60%, 38%)" rx="0.5" transform="rotate(45, 650, 685.7142857142858)"></rect><rect width="25" height="1" x="687.5" y="685.2142857142858" stroke="none" fill="hsl(316, 73%, 52%)" rx="0.5" transform="rotate(45, 700, 685.7142857142858)"></rect><rect width="1" height="25" x="699.5" y="673.2142857142858" stroke="none" fill="hsl(316, 73%, 52%)" rx="0.5" transform="rotate(45, 700, 685.7142857142858)"></rect><rect width="25" height="1" x="737.5" y="685.2142857142858" stroke="none" fill="hsl(261, 60%, 38%)" rx="0.5" transform="rotate(45, 750, 685.7142857142858)"></rect><rect width="1" height="25" x="749.5" y="673.2142857142858" stroke="none" fill="hsl(261, 60%, 38%)" rx="0.5" transform="rotate(45, 750, 685.7142857142858)"></rect><rect width="25" height="1" x="787.5" y="685.2142857142858" stroke="none" fill="hsl(316, 73%, 52%)" rx="0.5" transform="rotate(45, 800, 685.7142857142858)"></rect><rect width="1" height="25" x="799.5" y="673.2142857142858" stroke="none" fill="hsl(316, 73%, 52%)" rx="0.5" transform="rotate(45, 800, 685.7142857142858)"></rect><rect width="25" height="1" x="-12.5" y="799.5000000000001" stroke="none" fill="hsl(261, 60%, 38%)" rx="0.5" transform="rotate(45, 0, 800.0000000000001)"></rect><rect width="1" height="25" x="-0.5" y="787.5000000000001" stroke="none" fill="hsl(261, 60%, 38%)" rx="0.5" transform="rotate(45, 0, 800.0000000000001)"></rect><rect width="25" height="1" x="37.5" y="799.5000000000001" stroke="none" fill="hsl(316, 73%, 52%)" rx="0.5" transform="rotate(45, 50, 800.0000000000001)"></rect><rect width="1" height="25" x="49.5" y="787.5000000000001" stroke="none" fill="hsl(316, 73%, 52%)" rx="0.5" transform="rotate(45, 50, 800.0000000000001)"></rect><rect width="25" height="1" x="87.5" y="799.5000000000001" stroke="none" fill="hsl(261, 60%, 38%)" rx="0.5" transform="rotate(45, 100, 800.0000000000001)"></rect><rect width="1" height="25" x="99.5" y="787.5000000000001" stroke="none" fill="hsl(261, 60%, 38%)" rx="0.5" transform="rotate(45, 100, 800.0000000000001)"></rect><rect width="25" height="1" x="137.5" y="799.5000000000001" stroke="none" fill="hsl(316, 73%, 52%)" rx="0.5" transform="rotate(45, 150, 800.0000000000001)"></rect><rect width="1" height="25" x="149.5" y="787.5000000000001" stroke="none" fill="hsl(316, 73%, 52%)" rx="0.5" transform="rotate(45, 150, 800.0000000000001)"></rect><rect width="25" height="1" x="187.5" y="799.5000000000001" stroke="none" fill="hsl(261, 60%, 38%)" rx="0.5" transform="rotate(45, 200, 800.0000000000001)"></rect><rect width="1" height="25" x="199.5" y="787.5000000000001" stroke="none" fill="hsl(261, 60%, 38%)" rx="0.5" transform="rotate(45, 200, 800.0000000000001)"></rect><rect width="25" height="1" x="237.5" y="799.5000000000001" stroke="none" fill="hsl(316, 73%, 52%)" rx="0.5" transform="rotate(45, 250, 800.0000000000001)"></rect><rect width="1" height="25" x="249.5" y="787.5000000000001" stroke="none" fill="hsl(316, 73%, 52%)" rx="0.5" transform="rotate(45, 250, 800.0000000000001)"></rect><rect width="25" height="1" x="287.5" y="799.5000000000001" stroke="none" fill="hsl(261, 60%, 38%)" rx="0.5" transform="rotate(45, 300, 800.0000000000001)"></rect><rect width="1" height="25" x="299.5" y="787.5000000000001" stroke="none" fill="hsl(261, 60%, 38%)" rx="0.5" transform="rotate(45, 300, 800.0000000000001)"></rect><rect width="25" height="1" x="337.5" y="799.5000000000001" stroke="none" fill="hsl(316, 73%, 52%)" rx="0.5" transform="rotate(45, 350, 800.0000000000001)"></rect><rect width="1" height="25" x="349.5" y="787.5000000000001" stroke="none" fill="hsl(316, 73%, 52%)" rx="0.5" transform="rotate(45, 350, 800.0000000000001)"></rect><rect width="25" height="1" x="387.5" y="799.5000000000001" stroke="none" fill="hsl(261, 60%, 38%)" rx="0.5" transform="rotate(45, 400, 800.0000000000001)"></rect><rect width="1" height="25" x="399.5" y="787.5000000000001" stroke="none" fill="hsl(261, 60%, 38%)" rx="0.5" transform="rotate(45, 400, 800.0000000000001)"></rect><rect width="25" height="1" x="437.5" y="799.5000000000001" stroke="none" fill="hsl(316, 73%, 52%)" rx="0.5" transform="rotate(45, 450, 800.0000000000001)"></rect><rect width="1" height="25" x="449.5" y="787.5000000000001" stroke="none" fill="hsl(316, 73%, 52%)" rx="0.5" transform="rotate(45, 450, 800.0000000000001)"></rect><rect width="25" height="1" x="487.5" y="799.5000000000001" stroke="none" fill="hsl(261, 60%, 38%)" rx="0.5" transform="rotate(45, 500, 800.0000000000001)"></rect><rect width="1" height="25" x="499.5" y="787.5000000000001" stroke="none" fill="hsl(261, 60%, 38%)" rx="0.5" transform="rotate(45, 500, 800.0000000000001)"></rect><rect width="25" height="1" x="537.5" y="799.5000000000001" stroke="none" fill="hsl(316, 73%, 52%)" rx="0.5" transform="rotate(45, 550, 800.0000000000001)"></rect><rect width="1" height="25" x="549.5" y="787.5000000000001" stroke="none" fill="hsl(316, 73%, 52%)" rx="0.5" transform="rotate(45, 550, 800.0000000000001)"></rect><rect width="25" height="1" x="587.5" y="799.5000000000001" stroke="none" fill="hsl(261, 60%, 38%)" rx="0.5" transform="rotate(45, 600, 800.0000000000001)"></rect><rect width="1" height="25" x="599.5" y="787.5000000000001" stroke="none" fill="hsl(261, 60%, 38%)" rx="0.5" transform="rotate(45, 600, 800.0000000000001)"></rect><rect width="25" height="1" x="637.5" y="799.5000000000001" stroke="none" fill="hsl(316, 73%, 52%)" rx="0.5" transform="rotate(45, 650, 800.0000000000001)"></rect><rect width="1" height="25" x="649.5" y="787.5000000000001" stroke="none" fill="hsl(316, 73%, 52%)" rx="0.5" transform="rotate(45, 650, 800.0000000000001)"></rect><rect width="25" height="1" x="687.5" y="799.5000000000001" stroke="none" fill="hsl(261, 60%, 38%)" rx="0.5" transform="rotate(45, 700, 800.0000000000001)"></rect><rect width="1" height="25" x="699.5" y="787.5000000000001" stroke="none" fill="hsl(261, 60%, 38%)" rx="0.5" transform="rotate(45, 700, 800.0000000000001)"></rect><rect width="25" height="1" x="737.5" y="799.5000000000001" stroke="none" fill="hsl(316, 73%, 52%)" rx="0.5" transform="rotate(45, 750, 800.0000000000001)"></rect><rect width="1" height="25" x="749.5" y="787.5000000000001" stroke="none" fill="hsl(316, 73%, 52%)" rx="0.5" transform="rotate(45, 750, 800.0000000000001)"></rect><rect width="25" height="1" x="787.5" y="799.5000000000001" stroke="none" fill="hsl(261, 60%, 38%)" rx="0.5" transform="rotate(45, 800, 800.0000000000001)"></rect><rect width="1" height="25" x="799.5" y="787.5000000000001" stroke="none" fill="hsl(261, 60%, 38%)" rx="0.5" transform="rotate(45, 800, 800.0000000000001)"></rect></g></svg>