<svg xmlns="http://www.w3.org/2000/svg" version="1.1" xmlns:xlink="http://www.w3.org/1999/xlink" xmlns:svgjs="http://svgjs.dev/svgjs" width="1000" height="186" viewBox="0 0 1000 186"><g transform="matrix(1,0,0,1,-0.6060605107855395,0.4389947622945414)"><svg viewBox="0 0 396 74" data-background-color="#ffffff" preserveAspectRatio="xMidYMid meet" height="186" width="1000" xmlns="http://www.w3.org/2000/svg" xmlns:xlink="http://www.w3.org/1999/xlink"><g id="tight-bounds" transform="matrix(1,0,0,1,0.2400000377289473,-0.17465383016019587)"><svg viewBox="0 0 395.5199999999999 74.34930766032038" height="74.34930766032038" width="395.5199999999999"><g><svg viewBox="0 0 507.13512317866116 95.33056558091818" height="74.34930766032038" width="395.5199999999999"><g transform="matrix(1,0,0,1,0,13.17520841241344)"><svg viewBox="0 0 395.52 68.9801487560913" height="68.9801487560913" width="395.52"><g id="textblocktransform"><svg viewBox="0 0 395.52 68.9801487560913" height="68.9801487560913" width="395.52" id="textblock"><g><svg viewBox="0 0 395.52 68.9801487560913" height="68.9801487560913" width="395.52"><g transform="matrix(1,0,0,1,0,0)"><svg width="395.52" viewBox="3.700000047683716 -34 194.9300079345703 34" height="68.9801487560913" data-palette-color="#0a1b2f"><path d="M3.7 0L3.7-34 17.05-34Q22.35-34 25-31.88 27.65-29.75 27.65-25L27.65-25Q27.65-22.15 26.8-20.48 25.95-18.8 23.9-17.5L23.9-17.5Q26.15-16.55 27.23-14.75 28.3-12.95 28.3-9.75L28.3-9.75Q28.3-4.8 25.4-2.4 22.5 0 17.25 0L17.25 0 3.7 0ZM16.9-14.2L16.9-14.2 10.6-14.2 10.6-5.9 16.9-5.9Q19.15-5.9 20.23-6.8 21.3-7.7 21.3-10.1L21.3-10.1Q21.3-14.2 16.9-14.2ZM16.7-28.1L16.7-28.1 10.6-28.1 10.6-20 16.75-20Q20.65-20 20.65-24.05 20.65-28.1 16.7-28.1ZM47.7-11.4L41.05-11.4 41.05 0 34.15 0 34.15-34 47.35-34Q59.35-34 59.35-22.8L59.35-22.8Q59.35-16.15 54.35-13L54.35-13 59.2 0 51.65 0 47.7-11.4ZM47.45-17.3Q49.9-17.3 51.1-18.8 52.3-20.3 52.3-22.75 52.3-25.2 51.02-26.65 49.75-28.1 47.35-28.1L47.35-28.1 41.05-28.1 41.05-17.3 47.45-17.3ZM72.05 0L65.15 0 65.15-34 72.05-34 72.05 0ZM101.44 0L79.44 0 79.44-34 101.44-34 101.44-28 86.34-28 86.34-20.05 98.44-20.05 98.44-14.15 86.34-14.15 86.34-6 101.44-6 101.44 0ZM114.04 0L107.14 0 107.14-34 128.84-34 128.84-28 114.04-28 114.04-18 126.14-18 126.14-12 114.04-12 114.04 0ZM140.59 0L133.69 0 133.69-34 140.59-34 140.59 0ZM154.89 0L147.99 0 147.99-34 169.69-34 169.69-28 154.89-28 154.89-18 166.99-18 166.99-12 154.89-12 154.89 0ZM188.23-13.75L188.23 0 181.33 0 181.33-13.75 170.83-34 178.48-34 184.73-20.45 190.98-34 198.63-34 188.23-13.75Z" opacity="1" transform="matrix(1,0,0,1,0,0)" fill="#0a1b2f" class="wordmark-text-0" data-fill-palette-color="primary" id="text-0"></path></svg></g></svg></g></svg></g></svg></g><g transform="matrix(1,0,0,1,411.804557597743,0)"><svg viewBox="0 0 95.33056558091818 95.33056558091818" height="95.33056558091818" width="95.33056558091818"><g data-palette-color="#5b43e6"><rect width="26.0570212587843" height="95.33056558091818" fill="#5b43e6" stroke="transparent" data-fill-palette-color="accent" x="0" fill-opacity="1"></rect><rect width="26.0570212587843" height="95.33056558091818" fill="#5b43e6" stroke="transparent" data-fill-palette-color="accent" x="31.776855193639392" fill-opacity="0.75"></rect><rect width="26.0570212587843" height="95.33056558091818" fill="#5b43e6" stroke="transparent" data-fill-palette-color="accent" x="63.553710387278784" fill-opacity="0.5"></rect></g></svg></g></svg></g><defs></defs></svg><rect width="395.5199999999999" height="74.34930766032038" fill="none" stroke="none" visibility="hidden"></rect></g></svg></g></svg>